<svg width="1200" height="630" viewBox="0 0 1200 630" fill="none" xmlns="http://www.w3.org/2000/svg">
  <rect width="1200" height="630" rx="36" fill="#120F19"/>
  <rect x="72" y="72" width="1056" height="486" rx="32" fill="#1B1626" stroke="#3A2B56" stroke-width="2"/>
  <circle cx="158" cy="150" r="38" fill="#754ACF"/>
  <path d="M158 126c-13 0-23 10-23 23v7c0 13 10 23 23 23s23-10 23-23v-7c0-13-10-23-23-23Z" fill="#120F19"/>
  <path d="M118 160c0 22 18 40 40 40s40-18 40-40M158 200v28M134 228h48" stroke="#120F19" stroke-width="12" stroke-linecap="round"/>
  <text x="236" y="146" fill="#F7F7F8" font-family="Pretendard, Apple SD Gothic Neo, Arial, sans-serif" font-size="64" font-weight="800">차곡</text>
  <text x="238" y="194" fill="#AEB4C0" font-family="Pretendard, Apple SD Gothic Neo, Arial, sans-serif" font-size="28" font-weight="500">녹음부터 요약까지, 내 기기에서 한 번에</text>
  <g transform="translate(166 282)">
    <rect x="0" y="0" width="868" height="146" rx="24" fill="#251B35"/>
    <rect x="36" y="34" width="112" height="78" rx="18" fill="#754ACF"/>
    <path d="M72 50v46M94 42v62M116 58v30" stroke="#14111D" stroke-width="10" stroke-linecap="round"/>
    <text x="184" y="58" fill="#F7F7F8" font-family="Pretendard, Apple SD Gothic Neo, Arial, sans-serif" font-size="28" font-weight="700">음성 기록을 로컬에서 분석</text>
    <text x="184" y="101" fill="#AEB4C0" font-family="Pretendard, Apple SD Gothic Neo, Arial, sans-serif" font-size="22">WhisperKit STT · MLX 요약 · Core Data 저장</text>
  </g>
  <g transform="translate(166 462)">
    <rect width="160" height="12" rx="6" fill="#754ACF"/>
    <rect x="184" width="140" height="12" rx="6" fill="#9B8CB8"/>
    <rect x="348" width="210" height="12" rx="6" fill="#9B8CB8"/>
    <rect x="582" width="116" height="12" rx="6" fill="#9B8CB8"/>
  </g>
</svg>
